<?xml version="1.0" encoding="utf-8"?>
<!-- Svg Vector Icons : http://www.onlinewebfonts.com/icon -->
<!DOCTYPE svg PUBLIC "-//W3C//DTD SVG 1.1//EN" "http://www.w3.org/Graphics/SVG/1.1/DTD/svg11.dtd">
<svg version="1.1" xmlns="http://www.w3.org/2000/svg" xmlns:xlink="http://www.w3.org/1999/xlink" x="0px" y="0px" viewBox="0 0 1000 1000" enable-background="new 0 0 1000 1000" xml:space="preserve">
<metadata> Svg Vector Icons : http://www.onlinewebfonts.com/icon </metadata>
<g><g transform="translate(0.000000,511.000000) scale(0.100000,-0.100000)"><path d="M8754,4213.7c-480.5-128.2-784.8-633.6-664.2-1098.8c15.3-57.4,23-111,15.3-116.8c-38.3-32.5-1133.2-782.9-1156.2-792.5c-17.2-7.7-68.9,15.3-118.7,47.9c-120.6,82.3-281.4,135.9-442.2,147.4c-268,21-511.1-72.7-715.9-277.6l-122.5-120.6l-470.9,160.8l-470.9,160.8l-23,158.9c-47.9,336.9-185.7,555.1-451.8,715.9c-120.6,70.8-319.7,126.3-461.3,126.3c-392.4,0-756.1-269.9-872.9-648.9c-45.9-143.6-49.8-377.1-11.5-503.5l24.9-86.1l-591.5-413.5L1629.1,1262l-93.8,63.2c-532.2,358-1244.3,84.2-1407-539.8C-42,134.5,584-491.5,1234.8-321.1c488.1,126.3,798.3,629.8,675.7,1096.9l-24.9,101.5l59.3,44c137.8,101.5,1095,763.8,1116,771.5c13.4,5.7,63.2-19.1,111-51.7c354.1-243.1,842.3-187.6,1154.3,130.2l122.5,122.5l470.9-162.7l472.8-160.8l21.1-160.8c38.3-271.8,122.5-442.2,298.6-601.1c499.6-449.8,1296-225.9,1493.1,417.3c38.3,128.3,40.2,214.4,11.5,537.9c-5.7,53.6,24.9,76.6,578.1,461.3l582,403.9l91.9-61.3c528.3-356.1,1240.4-80.4,1403.1,541.7C10042.3,3763.9,9408.7,4389.8,8754,4213.7z M9123.4,3762c164.6-49.8,317.8-260.3,317.8-436.4c0-237.4-222.1-459.4-459.4-459.4c-120.6,0-218.2,44-315.8,143.6c-195.3,193.3-195.3,438.4,0,631.7C8799.9,3777.3,8943.5,3813.7,9123.4,3762z M3893.7,2804.8c107.2-59.3,199.1-181.9,225.9-308.2c44-189.5-59.3-402-235.4-495.8c-61.3-32.5-114.9-42.1-216.3-44c-116.8,0-147.4,7.7-229.7,57.4c-325.4,202.9-277.6,691,82.3,825C3621.9,2877.6,3792.3,2862.3,3893.7,2804.8z M6566,1876.4c53.6-32.5,112.9-91.9,147.4-147.4c51.7-84.2,57.4-111,57.4-241.2s-5.7-157-57.4-241.2c-80.4-128.3-201-201-358-212.5c-105.3-7.7-134-1.9-225.9,46c-379,195.2-333.1,715.9,76.6,849.9C6299.9,1960.7,6472.2,1935.8,6566,1876.4z M1160.2,1005.4c105.3-30.6,264.2-189.5,294.8-294.8c53.6-179.9,15.3-323.5-120.6-457.5C1141,57.9,896,57.9,702.6,253.1c-195.3,193.3-195.3,438.4,0,631.7C836.6,1020.8,980.2,1057.1,1160.2,1005.4z"/><path d="M8244.8,1461c-78.5-34.5-158.9-132.1-172.3-208.7c-5.7-34.5-7.7-1190.7-5.7-2572.8c5.7-2501.9,5.7-2511.5,45.9-2563.2c21.1-28.7,63.2-70.8,91.9-91.9c51.7-38.3,74.6-40.2,777.2-40.2c702.5,0,725.5,1.9,777.2,40.2c28.7,21.1,70.8,63.2,91.9,91.9c40.2,51.7,40.2,57.4,40.2,2614.9c0,2557.5,0,2563.2-40.2,2614.9c-21.1,28.7-63.2,70.8-91.9,91.9c-49.8,38.3-78.5,40.2-754.2,44C8449.6,1485.9,8290.7,1482.1,8244.8,1461z"/><path d="M2951.9,547.9c-26.8-11.5-68.9-38.3-91.9-61.3c-105.3-97.6-99.6,17.2-99.6-2220.5v-2075.1l44-63.2c23-34.5,67-82.3,95.7-103.4c51.7-38.3,78.5-40.2,750.4-45.9c666.2-5.7,700.6-3.8,773.4,32.5c40.2,21.1,95.7,70.8,118.7,111l45.9,72.7v2077v2077l-45.9,72.7c-23,40.2-76.6,88.1-118.7,109.1c-68.9,36.4-112.9,38.3-748.5,36.4C3273.5,567.1,2980.6,559.4,2951.9,547.9z"/><path d="M5566.8-392c-42.1-24.9-93.8-74.6-114.8-111c-40.2-67-40.2-86.1-40.2-1684.5s0-1617.5,40.2-1684.5c21-36.4,72.7-86.1,114.8-111c74.6-42.1,78.5-42.1,777.2-38.3c677.6,5.7,704.4,7.6,756.1,45.9c28.7,21.1,72.7,68.9,97.6,103.4l42.1,63.2v1621.4v1621.4l-42.1,63.2c-24.9,34.5-68.9,82.3-97.6,103.4c-51.7,38.3-78.5,40.2-756.1,45.9C5645.2-349.9,5641.4-349.9,5566.8-392z"/><path d="M281.5-1295.5c-78.5-34.5-158.9-132.1-172.3-208.7c-5.7-34.5-9.6-570.4-5.7-1194.5c5.7-1110.3,5.7-1133.2,45.9-1184.9c21.1-28.7,63.2-70.8,91.9-91.9c51.7-38.3,74.7-40.2,777.2-40.2c702.5,0,725.5,1.9,777.2,40.2c28.7,21.1,70.8,63.2,91.9,91.9c40.2,51.7,40.2,70.8,40.2,1236.6c0,1165.8,0,1184.9-40.2,1236.6c-21.1,28.7-63.2,70.8-91.9,91.9c-49.8,38.3-78.5,40.2-754.2,44C486.3-1270.6,327.4-1274.4,281.5-1295.5z"/></g></g>
</svg>