<svg xmlns="http://www.w3.org/2000/svg" width="27.088" height="24" viewBox="0 0 27.088 24">
  <path id="Icon_open-magnifying-glass" data-name="Icon open-magnifying-glass" d="M11.745-.015C5.268-.015,0,4.652,0,10.39S5.268,20.8,11.745,20.8a12.818,12.818,0,0,0,5.57-1.219,3.193,3.193,0,0,0,.436.386l3.356,2.973a3.7,3.7,0,0,0,3.379.93,3.251,3.251,0,0,0,2.5-2.217,2.827,2.827,0,0,0-1.049-2.994l-3.356-2.973a3.312,3.312,0,0,0-.537-.386,9.377,9.377,0,0,0,1.476-4.935c0-5.738-5.268-10.406-11.745-10.406Zm0,2.973c4.664,0,8.389,3.3,8.389,7.433A7,7,0,0,1,17.919,15.5l-.1.089a3.193,3.193,0,0,0-.436.386,9.047,9.047,0,0,1-5.671,1.873c-4.664,0-8.389-3.3-8.389-7.433s3.725-7.433,8.389-7.433Z" transform="translate(0 0.045)"/>
</svg>
